<svg xmlns="http://www.w3.org/2000/svg" xmlns:xlink="http://www.w3.org/1999/xlink" zoomAndPan="magnify" viewBox="90 82 194 210" preserveAspectRatio="xMidYMid meet" version="1.0"><defs><clipPath id="6190c48d4d"><path d="M 165 121 L 280.183594 121 L 280.183594 288.375 L 165 288.375 Z M 165 121 " clip-rule="nonzero"/></clipPath><clipPath id="812405d54e"><path d="M 93.902344 85.632812 L 210 85.632812 L 210 253 L 93.902344 253 Z M 93.902344 85.632812 " clip-rule="nonzero"/></clipPath></defs><g clip-path="url(#6190c48d4d)"><path fill="#ffffff" d="M 280.117188 287.632812 C 274.761719 279.09375 269.398438 270.558594 264.03125 262.019531 L 255.976562 249.242188 L 247.890625 236.460938 L 231.695312 210.917969 L 216.5 186.988281 L 236.0625 158.261719 L 241.210938 150.707031 C 242.9375 148.195312 244.644531 145.671875 246.382812 143.167969 L 256.785156 128.132812 L 260.996094 122.054688 L 205.503906 121.683594 L 204.335938 123.773438 C 202.625 126.832031 200.953125 129.914062 199.265625 132.984375 L 198.003906 135.292969 L 196.761719 137.613281 L 194.257812 142.238281 L 189.3125 151.523438 L 186.792969 156.3125 C 185.832031 154.855469 184.867188 153.394531 183.90625 151.941406 L 180.957031 147.527344 L 177.976562 143.128906 L 174.996094 138.742188 L 171.976562 134.375 C 169.953125 131.460938 167.898438 128.570312 165.816406 125.699219 C 165.757812 125.597656 165.667969 125.53125 165.554688 125.5 C 165.4375 125.472656 165.328125 125.488281 165.226562 125.546875 C 165.125 125.605469 165.058594 125.695312 165.027344 125.808594 C 164.996094 125.925781 165.011719 126.035156 165.074219 126.136719 C 166.585938 129.339844 168.140625 132.523438 169.734375 135.6875 L 172.121094 140.433594 L 174.542969 145.164062 L 176.980469 149.878906 L 179.445312 154.578125 C 181.101562 157.703125 182.753906 160.832031 184.433594 163.945312 L 186.859375 168.433594 L 189.746094 163.90625 C 191.628906 160.945312 193.46875 157.96875 195.332031 155 L 200.863281 146.0625 L 203.609375 141.574219 L 204.980469 139.339844 L 206.339844 137.105469 C 207.714844 134.828125 209.089844 132.558594 210.453125 130.277344 C 211.542969 130.277344 244.714844 130.152344 246.035156 130.125 L 240.332031 139.179688 C 238.714844 141.757812 237.0625 144.316406 235.429688 146.890625 L 230.503906 154.59375 L 210.789062 185.386719 L 209.761719 186.988281 L 210.789062 188.480469 L 227.882812 213.429688 L 245.015625 238.355469 L 253.582031 250.8125 L 262.175781 263.253906 C 267.902344 271.5625 273.644531 279.851562 279.410156 288.117188 C 279.476562 288.214844 279.566406 288.273438 279.679688 288.296875 C 279.792969 288.316406 279.898438 288.296875 279.996094 288.230469 C 280.09375 288.167969 280.152344 288.078125 280.175781 287.964844 C 280.199219 287.851562 280.179688 287.746094 280.117188 287.648438 Z M 280.117188 287.632812 " fill-opacity="1" fill-rule="nonzero"/></g><g clip-path="url(#812405d54e)"><path fill="#ffffff" d="M 204.421875 238.179688 L 202.035156 233.433594 L 199.617188 228.707031 L 197.175781 223.992188 L 194.710938 219.292969 C 193.054688 216.164062 191.40625 213.035156 189.722656 209.925781 L 187.296875 205.429688 L 184.410156 209.964844 C 182.527344 212.921875 180.6875 215.898438 178.824219 218.871094 L 173.289062 227.808594 L 170.546875 232.296875 L 169.171875 234.53125 L 167.816406 236.765625 C 166.445312 239.042969 165.078125 241.316406 163.71875 243.59375 C 162.632812 243.59375 129.457031 243.722656 128.136719 243.75 L 133.824219 234.695312 C 135.445312 232.113281 137.097656 229.550781 138.730469 226.984375 L 143.65625 219.277344 L 163.371094 188.480469 L 164.394531 186.882812 L 163.371094 185.390625 L 146.277344 160.492188 L 129.144531 135.617188 L 120.582031 123.1875 L 111.976562 110.769531 C 106.257812 102.488281 100.511719 94.222656 94.746094 85.96875 C 94.683594 85.875 94.59375 85.816406 94.484375 85.792969 C 94.371094 85.769531 94.269531 85.789062 94.171875 85.847656 C 94.074219 85.910156 94.011719 86 93.984375 86.113281 C 93.960938 86.226562 93.976562 86.335938 94.039062 86.433594 C 99.402344 94.960938 104.765625 103.480469 110.125 111.996094 L 118.183594 124.765625 L 126.265625 137.519531 L 142.460938 163.011719 L 157.65625 186.882812 L 138.105469 215.613281 L 132.957031 223.164062 C 131.230469 225.675781 129.527344 228.199219 127.785156 230.707031 L 117.382812 245.742188 L 113.175781 251.820312 L 168.667969 252.191406 L 169.839844 250.082031 C 171.546875 247.023438 173.222656 243.941406 174.90625 240.871094 L 176.171875 238.5625 L 177.421875 236.25 L 179.925781 231.621094 L 184.84375 222.351562 L 187.363281 217.5625 L 190.25 221.929688 L 193.199219 226.34375 L 196.179688 230.742188 L 199.160156 235.128906 L 202.179688 239.5 C 204.199219 242.410156 206.253906 245.300781 208.339844 248.167969 C 208.402344 248.257812 208.488281 248.3125 208.597656 248.332031 C 208.703125 248.355469 208.804688 248.335938 208.898438 248.28125 C 208.992188 248.226562 209.054688 248.144531 209.085938 248.042969 C 209.117188 247.9375 209.113281 247.835938 209.066406 247.738281 C 207.566406 244.542969 206.019531 241.355469 204.421875 238.179688 Z M 204.421875 238.179688 " fill-opacity="1" fill-rule="nonzero"/></g></svg>